# xmcd
#
# Track frame offsets:
#	150
#	20452
#	48900
#	69187
#
# Disc length: 1154 seconds
#
# Revision: 0
# Processed by: cddbd v1.5.2PL0 Copyright (c) Steve Scherf et al.
# Submitted via: SynApp - FreeCDDB Version: 2.5
#
DISCID=27048004
DTITLE=Bonnie Raitt - You
DYEAR=1994
DGENRE=Blues
TTITLE0=Bonnie Raitt - You
TTITLE1=Bonnie Raitt - Feeling The Falling
TTITLE2=Bonnie Raitt - I'm In The Mood
TTITLE3=Bonnie Raitt - Thing called Love
EXTD=
EXTT0=
EXTT1=
EXTT2=
EXTT3=
PLAYORDER=
